<svg width="16" height="16" viewBox="0 0 16 16" fill="none" xmlns="http://www.w3.org/2000/svg">
<circle cx="8" cy="8" r="8" fill="#2A3D5B"/>
<path d="M9.2748 7.90259C9.2748 8.09859 9.2384 8.28059 9.1656 8.44859C9.0984 8.61659 9.0032 8.76219 8.88 8.88539C8.7568 9.00859 8.6112 9.10379 8.4432 9.17099C8.2752 9.24379 8.0932 9.28019 7.8972 9.28019H3.546V2.66099H7.8972C8.0932 2.66099 8.2752 2.69739 8.4432 2.77019C8.6112 2.83739 8.7568 2.93259 8.88 3.05579C9.0032 3.17899 9.0984 3.32459 9.1656 3.49259C9.2384 3.66059 9.2748 3.84259 9.2748 4.03859V7.90259ZM7.7964 8.23859C7.886 8.23859 7.9616 8.20779 8.0232 8.14619C8.0848 8.08459 8.1156 8.00899 8.1156 7.91939V4.02179C8.1156 3.93219 8.0848 3.85659 8.0232 3.79499C7.9616 3.73339 7.886 3.70259 7.7964 3.70259H4.7052V8.23859H7.7964Z" fill="white"/>
<path d="M11.656 13.584H10.552V10.784H7.624V13.584H6.52V7.28H7.624V9.792H10.552V7.28H11.656V13.584Z" fill="white"/>
</svg>
